:version 1.10
:name ASF
:units
  mass 1
  length 1
  angle deg
:documentation
  ASF file generated by Kaydara
:root
  axis xyz
  order  tx ty tz rx ry rz
  position 0 0 0
  orientation 0 0 0
:bonedata
  begin
    id 1
    name RightUpLegDummy
    direction -1 2.30186e-007 8.31532e-007
    length 4.46685
    axis 0 0 0 xyz
  end
  begin
    id 2
    name RightUpLeg
    direction -2.30187e-007 -1 1.24343e-010
    length 16.4045
    axis -3.49089 -0.000906625 0.000286804 xyz
    dof rx ry rz
  end
  begin
    id 3
    name RightLeg
    direction -2.30181e-007 -1 -4.17157e-009
    length 17.5097
    axis 3.68512 0.0193738 -0.131023 xyz
    dof rx ry rz
  end
  begin
    id 4
    name RightFoot
    direction 8.31421e-007 -4.51202e-011 1
    length 6.49508
    axis 4.81691e-005 -0.120479 -0.188788 xyz
    dof rx ry rz
  end
  begin
    id 5
    name RightToes
    direction 0.00124746 -0.014064 0.9999
    length 3.85082
    axis 0.000481921 0.542163 -0.142578 xyz
    dof rx ry rz
  end
  begin
    id 6
    name SpineDummy
    direction 0.0717043 0.9409 -0.331007
    length 10.0032
    axis 0 0 0 xyz
  end
  begin
    id 7
    name Spine
    direction 2.30186e-007 1 4.58806e-011
    length 9.84055
    axis -0.001389 0.000121418 2.40972e-006 xyz
    dof rx ry rz
  end
  begin
    id 8
    name Spine1
    direction 0 0 0
    length 0
    axis -0.001389 0.000121451 1.30017e-006 xyz
    dof rx ry rz
  end
  begin
    id 9
    name HEadDummy
    direction -0.00347485 0.950688 -0.310128
    length 8.00997
    axis -0.001389 0.000121451 1.30017e-006 xyz
  end
  begin
    id 10
    name HEad
    direction -0.0222688 0.980941 0.193023
    length 5.12695
    axis -0.001389 0.000121451 1.30017e-006 xyz
    dof rx ry rz
  end
  begin
    id 11
    name LeftShoulder1Dummy
    direction 0.988871 0.146793 -0.0242004
    length 3.5792
    axis -0.001389 0.000121451 1.30017e-006 xyz
  end
  begin
    id 12
    name LeftShoulder1
    direction 0.993832 0.108932 0.020779
    length 4.16823
    axis -0.001389 0.000121451 1.30017e-006 xyz
    dof rx ry rz
  end
  begin
    id 13
    name LeftArm
    direction 1 3.44807e-006 -8.31404e-007
    length 9.91437
    axis -23.1894 0.134784 0.967509 xyz
    dof rx ry rz
  end
  begin
    id 14
    name LeftForeArm
    direction 1 3.44842e-006 -8.31581e-007
    length 9.08575
    axis -9.91835 -0.06569 -0.177793 xyz
    dof rx ry rz
  end
  begin
    id 15
    name LeftHand
    direction 0.992938 -0.0411636 0.11126
    length 5.32135
    axis -0.00960232 -0.00340091 0.185173 xyz
    dof rx ry rz
  end
  begin
    id 16
    name RightShoulderDummy
    direction -0.988871 0.146793 -0.0241962
    length 3.5792
    axis -0.001389 0.000121451 1.30017e-006 xyz
  end
  begin
    id 17
    name RightShoulder
    direction -0.993832 0.108933 0.0207785
    length 4.16823
    axis 0.215806 0.000203643 -0.0068026 xyz
    dof rx ry rz
  end
  begin
    id 18
    name RightArm
    direction -1 3.90912e-006 8.31284e-007
    length 9.91437
    axis -23.2009 -0.134239 -0.964101 xyz
    dof rx ry rz
  end
  begin
    id 19
    name RightForeArm
    direction -1 3.90882e-006 8.31502e-007
    length 9.08575
    axis -9.92322 0.0658061 0.178867 xyz
    dof rx ry rz
  end
  begin
    id 20
    name RightHand
    direction -0.992843 -0.0414603 0.112003
    length 5.28593
    axis -0.00960638 0.00330671 -0.185228 xyz
    dof rx ry rz
  end
  begin
    id 21
    name LeftUpLegDummy
    direction 1 -2.30186e-007 -8.31532e-007
    length 4.46685
    axis 0 0 0 xyz
  end
  begin
    id 22
    name LeftUpLeg
    direction -2.30187e-007 -1 6.00931e-010
    length 16.4045
    axis -3.48766 0.00143442 -0.000524262 xyz
    dof rx ry rz
  end
  begin
    id 23
    name LeftLeg
    direction -2.30187e-007 -1 1.6669e-009
    length 17.5097
    axis 3.68178 -0.00654042 -0.000285133 xyz
    dof rx ry rz
  end
  begin
    id 24
    name LeftFoot
    direction 8.31532e-007 -4.54478e-011 1
    length 6.49508
    axis 1.87233e-006 4.66016e-005 -8.6538e-006 xyz
    dof rx ry rz
  end
  begin
    id 25
    name LeftToes
    direction 0.00818058 -0.00485161 0.999955
    length 3.85048
    axis 1.06247e-005 4.65869e-005 -8.65513e-006 xyz
    dof rx ry rz
  end
:hierarchy
  begin
    root RightUpLegDummy SpineDummy LeftUpLegDummy
    RightUpLegDummy RightUpLeg
    RightUpLeg RightLeg
    RightLeg RightFoot
    RightFoot RightToes
    SpineDummy Spine
    Spine Spine1
    Spine1 HEadDummy LeftShoulder1Dummy RightShoulderDummy
    HEadDummy HEad
    LeftShoulder1Dummy LeftShoulder1
    LeftShoulder1 LeftArm
    LeftArm LeftForeArm
    LeftForeArm LeftHand
    RightShoulderDummy RightShoulder
    RightShoulder RightArm
    RightArm RightForeArm
    RightForeArm RightHand
    LeftUpLegDummy LeftUpLeg
    LeftUpLeg LeftLeg
    LeftLeg LeftFoot
    LeftFoot LeftToes
  end

:SAMPLES-PER-SECOND 30
:FULLY-SPECIFIED
:DEGREES
159
root  4.79194 31.9056 10.1915 10.317 -55.9132 0.806229
RightUpLeg  -17.1476 -12.2041 2.5911
RightLeg  48.4351 -7.64256 -7.54746
RightFoot  -14.4916 0.314591 2.85165
RightToes  -31.7399 -0.156084 -0.263875
Spine  9.00668 1.3893 -2.86994
Spine1  16.0353 4.86343 -7.35807
HEad  -13.1563 -37.8478 46.7027
LeftShoulder1  0 -2.42657e-020 -4.95415e-022
LeftArm  -27.6033 -5.38196 -70.5803
LeftForeArm  35.3402 -27.701 -5.29926
LeftHand  0.0968343 -4.90851 -2.63264
RightShoulder  0 2.42657e-020 1.07489e-018
RightArm  -40.9041 8.31815 86.3054
RightForeArm  55.3311 18.718 3.38529
RightHand  -0.880447 23.8897 -3.7911
LeftUpLeg  -40.9794 7.80334 -5.10544
LeftLeg  33.7235 2.65649 1.53112
LeftFoot  4.06551 -0.0156389 0.440605
LeftToes  -1.55866 1.28829e-006 1.15665e-007
160
root  5.58392 31.6995 10.2118 7.92856 -58.1423 2.59027
RightUpLeg  -12.058 -11.8135 2.32738
RightLeg  46.4303 -5.57416 -5.1641
RightFoot  -15.1673 0.230941 2.11212
RightToes  -35.985 -0.187231 -0.291337
Spine  8.52888 1.54064 -3.4608
Spine1  15.1117 5.23033 -8.38612
HEad  -10.3826 -37.4657 44.5927
LeftShoulder1  0 -2.42657e-020 -4.95415e-022
LeftArm  -28.9633 -2.7747 -69.8887
LeftForeArm  38.9431 -24.9746 -4.69422
LeftHand  0.11334 -5.53148 -2.71917
RightShoulder  0 2.42657e-020 1.07489e-018
RightArm  -40.941 6.34761 87.3898
RightForeArm  57.0108 18.5062 3.34024
RightHand  -0.654561 24.2123 -2.68164
LeftUpLeg  -41.1495 9.05819 -6.88361
LeftLeg  33.8079 3.54562 2.05101
LeftFoot  4.25368 -0.0220319 0.569612
LeftToes  0.195798 1.28829e-006 1.15665e-007
161
root  6.40465 31.5284 10.1941 5.29219 -60.2854 4.33018
RightUpLeg  -6.85484 -9.20184 2.15881
RightLeg  43.672 -3.93939 -3.32668
RightFoot  -14.5369 0.127779 1.37944
RightToes  -40.2565 -0.220536 -0.316567
Spine  8.00126 1.51331 -3.75708
Spine1  14.1333 5.25013 -9.07992
HEad  -5.98546 -36.834 40.5006
LeftShoulder1  0 -2.42657e-020 -4.95415e-022
LeftArm  -31.6095 1.10196 -69.5935
LeftForeArm  42.9534 -21.7636 -4.01543
LeftHand  0.148521 -6.19907 -3.11568
RightShoulder  0 2.42657e-020 1.07489e-018
RightArm  -41.1434 4.59921 88.4334
RightForeArm  57.7399 18.7291 3.38244
RightHand  -0.484471 24.1075 -1.89898
LeftUpLeg  -41.0631 11.8061 -8.90619
LeftLeg  33.303 3.14143 1.78044
LeftFoot  4.65467 -0.0243476 0.599061
LeftToes  2.42003 1.28829e-006 1.15665e-007
162
root  7.32671 31.4223 10.077 3.32652 -62.307 5.09213
RightUpLeg  -2.24312 -4.32048 3.33658
RightLeg  39.8327 -2.63677 -1.94668
RightFoot  -12.5039 0.0393571 0.736844
RightToes  -41.243 -0.228488 -0.322036
Spine  7.51287 1.27186 -3.46077
Spine1  13.3518 4.78313 -8.85568
HEad  -0.667659 -35.1361 34.0521
LeftShoulder1  0 -2.42657e-020 -4.95415e-022
LeftArm  -35.5779 6.13728 -70.4259
LeftForeArm  46.5454 -19.27 -3.50849
LeftHand  0.184261 -6.22643 -3.76095
RightShoulder  0 2.42657e-020 1.07489e-018
RightArm  -41.1831 3.47042 88.7493
RightForeArm  56.6492 19.578 3.5525
RightHand  -0.268685 24.3212 -0.877035
LeftUpLeg  -40.8706 15.439 -10.6409
LeftLeg  31.9941 2.01458 1.08093
LeftFoot  5.60397 -0.0264559 0.540533
LeftToes  5.23577 1.28829e-006 1.15665e-007
163
root  8.3368 31.4044 9.97697 0.448425 -64.7564 6.65233
RightUpLeg  1.78036 -0.000469465 3.98173
RightLeg  34.6024 -4.13169 -2.48433
RightFoot  -13.9892 0.0905844 1.11592
RightToes  -35.3113 -0.182153 -0.287134
Spine  7.27144 1.09417 -3.0309
Spine1  13.0756 4.34262 -8.19974
HEad  4.40536 -32.7204 26.4569
LeftShoulder1  0 -2.42657e-020 -4.95415e-022
LeftArm  -40.2822 11.4805 -72.4767
LeftForeArm  50.7867 -18.3907 -3.32843
LeftHand  0.212247 -6.31404 -4.22125
RightShoulder  0 2.42657e-020 1.07489e-018
RightArm  -39.2677 2.85192 87.9205
RightForeArm  53.5108 20.9858 3.84124
RightHand  -0.133834 24.6159 -0.24345
LeftUpLeg  -39.7891 18.9404 -12.3906
LeftLeg  29.0305 1.39154 0.655558
LeftFoot  7.60665 -0.033701 0.506936
LeftToes  7.89044 1.28829e-006 1.15665e-007
164
root  9.52999 31.4326 9.72943 -0.668167 -68.1244 6.52367
RightUpLeg  3.10732 3.51907 4.92482
RightLeg  30.7512 -8.29811 -4.22503
RightFoot  -18.0657 0.381326 2.77601
RightToes  -24.8605 -0.110178 -0.214707
Spine  7.24869 1.44655 -2.23416
Spine1  13.2255 4.91193 -6.69203
HEad  8.04145 -30.2413 19.8219
LeftShoulder1  0 -2.42657e-020 -4.95415e-022
LeftArm  -45.302 16.2372 -75.986
LeftForeArm  54.4953 -20.1125 -3.66205
LeftHand  0.274401 -6.77472 -5.00852
RightShoulder  0 2.42657e-020 1.07489e-018
RightArm  -36.9256 2.87783 85.6594
RightForeArm  50.1922 22.5064 4.15876
RightHand  -0.0713788 25.1121 0.0495394
LeftUpLeg  -39.3535 23.485 -13.4868
LeftLeg  25.5013 0.416291 0.163584
LeftFoot  10.46 -0.0331857 0.362536
LeftToes  10.291 1.28829e-006 1.15665e-007
165
root  10.851 31.4862 9.39869 0.701584 -71.379 3.75334
RightUpLeg  2.33749 3.68589 5.55138
RightLeg  29.749 -9.59336 -4.66565
RightFoot  -20.0601 0.558465 3.53443
RightToes  -18.9776 -0.075833 -0.168551
Spine  7.81864 2.06421 -1.03818
Spine1  14.5699 6.08875 -4.46238
HEad  8.73486 -27.9128 15.1576
LeftShoulder1  0 -2.42657e-020 -4.95415e-022
LeftArm  -49.7019 19.3559 -80.6912
LeftForeArm  56.0185 -23.6365 -4.38158
LeftHand  0.325449 -7.54003 -5.31072
RightShoulder  0 2.42657e-020 1.07489e-018
RightArm  -34.9083 3.85638 82.1059
RightForeArm  47.6511 24.2769 4.53482
RightHand  -0.146194 25.4052 -0.278626
LeftUpLeg  -39.0669 27.7311 -13.6893
LeftLeg  21.582 -0.82478 -0.268956
LeftFoot  14.0995 -0.00887094 0.0717241
LeftToes  12.3753 1.28829e-006 1.15665e-007
